<svg xmlns="http://www.w3.org/2000/svg">
  <symbol viewBox="0 0 90 90" id="icon_house">
    <path d="M90 42.0968V38.4514L46.9216 7.25806H43.0784L33.3871 14.2748V8.70968H36.2903V0H7.25806V8.70968H10.1613V31.0935L0 38.4514V42.0968H7.25806V63.871H0V84.1936H7.25806V90H82.7419V59.5161C86.7448 59.5161 90 56.2609 90 52.2581C90 48.2552 86.7448 45 82.7419 45V42.0968H90ZM10.1613 2.90323H33.3871V5.80645H10.1613V2.90323ZM30.4839 8.70968V16.3778L13.0645 28.9923V8.70968H30.4839ZM5.80645 75.4839V81.2903H2.90323V66.7742H69.6774V81.2903H66.7742V75.4839H63.871V81.2903H60.9677V75.4839H58.0645V81.2903H55.1613V75.4839H52.2581V81.2903H49.3548V75.4839H46.4516V81.2903H43.5484V75.4839H40.6452V81.2903H37.7419V75.4839H34.8387V81.2903H31.9355V75.4839H29.0323V81.2903H26.129V75.4839H23.2258V81.2903H20.3226V75.4839H17.4194V81.2903H14.5161V75.4839H11.6129V81.2903H8.70968V75.4839H5.80645ZM79.8387 87.0968H10.1613V84.1936H72.5807V63.871H10.1613V42.0968H79.8387V45H27.1415L16.2544 52.2581L27.1415 59.5161H79.8387V87.0968ZM76.9355 47.9032V56.6129H74.0323V47.9032H76.9355ZM30.4839 50.8065V47.9032H71.129V50.8065H30.4839ZM71.129 53.7097V56.6129H30.4839V53.7097H71.129ZM27.5806 48.1972V56.3208L21.4875 52.2581L27.5806 48.1972ZM87.0968 52.2581C87.0968 54.6587 85.1425 56.6129 82.7419 56.6129H79.8387V47.9032H82.7419C85.1425 47.9032 87.0968 49.8575 87.0968 52.2581ZM81.2903 39.1936H79.8387H10.1613H8.70968H3.92661L44.0183 10.1613H45.9817L86.0734 39.1936H81.2903Z" fill="#CDA274"></path>
    <path d="M44.9996 14.5161C38.5962 14.5161 33.3867 19.7256 33.3867 26.129C33.3867 32.5324 38.5962 37.7419 44.9996 37.7419C51.403 37.7419 56.6125 32.5324 56.6125 26.129C56.6125 19.7256 51.403 14.5161 44.9996 14.5161ZM44.9996 34.8387C40.1966 34.8387 36.2899 30.932 36.2899 26.129C36.2899 21.326 40.1966 17.4193 44.9996 17.4193C49.8026 17.4193 53.7093 21.326 53.7093 26.129C53.7093 30.932 49.8026 34.8387 44.9996 34.8387Z" fill="#CDA274"></path>
  </symbol>
  <symbol viewBox="0 0 92 92" id="icon_board">
    <path d="M91.999 89.0322H89.0312V92H91.999V89.0322Z" fill="#CDA274"></path>
    <path d="M71.2258 14.8387V2.96774H47.4839V0H44.5161V2.96774H20.7742V35.0305L11.871 29.8907V29.6774H11.5037L11.1828 29.4919L11.0752 29.6774H0V50.4516C0 53.7254 2.66169 56.3871 5.93548 56.3871H20.7742V62.3226H33.8026L28.4606 89.0323H0V92H44.5161H47.4839H86.0645V89.0323H63.5394L58.1974 62.3226H71.2258V38.5806H83.0968V35.6129H80.5445L83.2303 24.8734L77.7289 17.9975C83.299 18.9731 87.5484 23.8328 87.5484 29.6774H90.5161C90.5161 24.8215 88.1605 20.5145 84.5417 17.8065H92V14.8387H71.2258ZM8.90323 50.4516C8.90323 52.0876 7.57145 53.4194 5.93548 53.4194C4.29952 53.4194 2.96774 52.0876 2.96774 50.4516V32.6452H8.90323V50.4516ZM19.8709 38.9794L22.8386 44.1173L13.2491 49.6559L19.1827 39.3764L19.8709 38.9794ZM11.871 34.2366L12.2698 33.5448L17.4077 36.5125L11.871 46.1057V34.2366ZM12.663 53.4194L22.9444 47.4839H23.7419V53.4194H12.663ZM44.5161 89.0323H31.4877L36.8297 62.3226H44.5161V89.0323ZM60.5123 89.0323H47.4839V62.3226H55.1703L60.5123 89.0323ZM68.1245 24.8734L70.8103 35.6129H68.2581V37.0968V38.5806V59.3548H23.7419V56.3871H26.7097V45.31L26.8933 45.2024L26.7097 44.8852V44.5161H26.4964L23.7419 39.7455V5.93548H68.2581V14.8387H59.3548V17.8065H66.8131C63.1944 20.5145 60.8387 24.8215 60.8387 29.6774H63.8065C63.8065 23.8328 68.0559 18.9731 73.626 17.9956L68.1245 24.8734ZM79.9955 25.5801L77.4877 35.6129H73.8671L71.3594 25.5782L74.1936 22.0355V28.1935H77.1613V22.0373L79.9955 25.5801Z" fill="#CDA274"></path>
    <path d="M32.6455 11.8709H29.6777V14.8387H32.6455V11.8709Z" fill="#CDA274"></path>
    <path d="M62.3232 50.4515H59.3555V53.4193H62.3232V50.4515Z" fill="#CDA274"></path>
    <path d="M59.3542 32.6451C59.3542 25.2814 53.3631 19.2903 45.9994 19.2903C43.5992 19.2903 41.3493 19.9357 39.3999 21.0486L35.3285 15.4507L32.9283 17.1961L37.0053 22.8015C34.3324 25.2443 32.6445 28.7462 32.6445 32.6451C32.6445 40.0088 38.6357 45.9999 45.9994 45.9999C48.3995 45.9999 50.6494 45.3545 52.5989 44.2416L56.6703 49.8395L59.0704 48.0941L54.9935 42.4887C57.6663 40.0459 59.3542 36.544 59.3542 32.6451ZM45.9994 43.0322C40.2735 43.0322 35.6123 38.371 35.6123 32.6451C35.6123 29.733 36.8216 27.0991 38.7599 25.2128L50.8424 41.8284C49.3937 42.5926 47.7485 43.0322 45.9994 43.0322ZM41.1564 23.4636C42.605 22.6976 44.2503 22.258 45.9994 22.258C51.7253 22.258 56.3865 26.9192 56.3865 32.6451C56.3865 35.5572 55.1771 38.1911 53.2388 40.0774L41.1564 23.4636Z" fill="#CDA274"></path>
  </symbol>
  <symbol viewBox="0 0 87 94" id="icon_progresion">
    <path d="M87 20.5625V0H57.3407V32.3125H51.4088V49.9375H25.7053V67.5625H0V94H80.0801V32.3125H60.3066V20.5625H87ZM60.3066 2.9375H84.0341V17.625H60.3066V2.9375ZM28.6713 52.875H51.4107V57.7714H28.6713V52.875ZM2.96593 70.5H25.7053V75.3964H2.96593V70.5ZM77.1142 91.0625H2.96593V78.3339H25.7053V84.6991H28.6713V60.7089H51.4107V70.9902H54.3766V43.0839H77.1142V91.0625ZM77.1142 35.25V40.1464H54.3748V35.25H77.1142Z" fill="#CDA274"></path>
    <path d="M79.5859 5.875H72.666V8.8125H79.5859V5.875Z" fill="#CDA274"></path>
    <path d="M79.5855 11.75H64.7559V14.6875H79.5855V11.75Z" fill="#CDA274"></path>
    <path d="M32.131 10.7714V13.7089H40.4152L3.40039 50.3671L5.49879 52.4454L42.5117 15.7854V22.0312H45.4777V10.7714H32.131Z" fill="#CDA274"></path>
    <path d="M9.39145 81.2714H5.4375V84.2089H9.39145V81.2714Z" fill="#CDA274"></path>
    <path d="M23.2333 81.2714H19.2793V84.2089H23.2333V81.2714Z" fill="#CDA274"></path>
    <path d="M35.0965 63.6464H31.1426V66.5839H35.0965V63.6464Z" fill="#CDA274"></path>
    <path d="M48.9383 63.6464H44.9844V66.5839H48.9383V63.6464Z" fill="#CDA274"></path>
    <path d="M60.8016 46.0215H56.8477V48.959H60.8016V46.0215Z" fill="#CDA274"></path>
    <path d="M74.6415 46.0215H70.6875V48.959H74.6415V46.0215Z" fill="#CDA274"></path>
  </symbol>
  <symbol viewBox="0 0 90 90" id="icon_study">
    <path d="M61.5 79.5H58.5V72V15C58.5 14.7 58.35 14.25 58.2 14.1L53.85 1.05C53.7 0.45 53.1 0 52.5 0C51.9 0 51.3 0.45 51.15 1.05L46.8 14.1C46.65 14.4 46.5 14.7 46.5 15V72V88.5C46.5 89.4 47.1 90 48 90H57C57.9 90 58.5 89.4 58.5 88.5V82.5H63C63.9 82.5 64.5 81.9 64.5 81V36H61.5V79.5ZM49.5 16.5H55.5V70.5H49.5V16.5ZM52.5 6.3L54.9 13.5H50.1L52.5 6.3ZM55.5 87H49.5V73.5H55.5V87Z" fill="#CDA274"></path>
    <path d="M88.5 0H72C71.1 0 70.5 0.6 70.5 1.5V88.5C70.5 89.4 71.1 90 72 90H88.5C89.4 90 90 89.4 90 88.5V1.5C90 0.6 89.4 0 88.5 0ZM87 87H73.5V76.5H81V73.5H73.5V61.5H81V58.5H73.5V46.5H81V43.5H73.5V31.5H81V28.5H73.5V16.5H81V13.5H73.5V3H87V87Z" fill="#CDA274"></path>
    <path d="M21 14.9996C9.45 14.9996 0 24.4496 0 35.9996C0 44.0996 4.65 51.4496 12 54.8996V65.9996V73.4996C12 74.3996 12.6 74.9996 13.5 74.9996H19.5V79.4996H22.5V74.9996H28.5C29.4 74.9996 30 74.3996 30 73.4996V65.9996V54.8996C37.35 51.4496 42 44.0996 42 35.9996C42 24.4496 32.55 14.9996 21 14.9996ZM27 71.9996H15V67.4996H27V71.9996ZM27.9 52.6496C27.3 52.7996 27 53.3996 27 53.9996V64.4996H15V61.4996H22.5V58.4996H15V53.9996C15 53.3996 14.7 52.7996 14.1 52.6496C7.35 49.7996 3 43.1996 3 35.9996C3 26.0996 11.1 17.9996 21 17.9996C30.9 17.9996 39 26.0996 39 35.9996C39 43.1996 34.65 49.7996 27.9 52.6496Z" fill="#CDA274"></path>
    <path d="M24.4512 27.4505L21.0012 30.9005L17.5512 27.4505L15.4512 29.5505L19.5012 33.6005V49.5005H22.5012V33.6005L26.5512 29.5505L24.4512 27.4505Z" fill="#CDA274"></path>
  </symbol>
  <symbol viewBox="0 0 10 19" id="icon_facebook">
    <path d="M9.18359 10.875L9.67578 7.64062H6.54688V5.53125C6.54688 4.61719 6.96875 3.77344 8.375 3.77344H9.81641V0.996094C9.81641 0.996094 8.51562 0.75 7.28516 0.75C4.71875 0.75 3.03125 2.33203 3.03125 5.14453V7.64062H0.148438V10.875H3.03125V18.75H6.54688V10.875H9.18359Z" fill="#292F36"></path>
  </symbol>
  <symbol viewBox="0 0 17 18" id="icon_instagram">
    <path d="M8.5 4.60742C6.125 4.60742 4.23242 6.53711 4.23242 8.875C4.23242 11.25 6.125 13.1426 8.5 13.1426C10.8379 13.1426 12.7676 11.25 12.7676 8.875C12.7676 6.53711 10.8379 4.60742 8.5 4.60742ZM8.5 11.6582C6.97852 11.6582 5.7168 10.4336 5.7168 8.875C5.7168 7.35352 6.94141 6.12891 8.5 6.12891C10.0215 6.12891 11.2461 7.35352 11.2461 8.875C11.2461 10.4336 10.0215 11.6582 8.5 11.6582ZM13.918 4.45898C13.918 3.90234 13.4727 3.45703 12.916 3.45703C12.3594 3.45703 11.9141 3.90234 11.9141 4.45898C11.9141 5.01562 12.3594 5.46094 12.916 5.46094C13.4727 5.46094 13.918 5.01562 13.918 4.45898ZM16.7383 5.46094C16.6641 4.125 16.3672 2.9375 15.4023 1.97266C14.4375 1.00781 13.25 0.710938 11.9141 0.636719C10.541 0.5625 6.42188 0.5625 5.04883 0.636719C3.71289 0.710938 2.5625 1.00781 1.56055 1.97266C0.595703 2.9375 0.298828 4.125 0.224609 5.46094C0.150391 6.83398 0.150391 10.9531 0.224609 12.3262C0.298828 13.6621 0.595703 14.8125 1.56055 15.8145C2.5625 16.7793 3.71289 17.0762 5.04883 17.1504C6.42188 17.2246 10.541 17.2246 11.9141 17.1504C13.25 17.0762 14.4375 16.7793 15.4023 15.8145C16.3672 14.8125 16.6641 13.6621 16.7383 12.3262C16.8125 10.9531 16.8125 6.83398 16.7383 5.46094ZM14.957 13.7734C14.6973 14.5156 14.1035 15.0723 13.3984 15.3691C12.2852 15.8145 9.6875 15.7031 8.5 15.7031C7.27539 15.7031 4.67773 15.8145 3.60156 15.3691C2.85938 15.0723 2.30273 14.5156 2.00586 13.7734C1.56055 12.6973 1.67188 10.0996 1.67188 8.875C1.67188 7.6875 1.56055 5.08984 2.00586 3.97656C2.30273 3.27148 2.85938 2.71484 3.60156 2.41797C4.67773 1.97266 7.27539 2.08398 8.5 2.08398C9.6875 2.08398 12.2852 1.97266 13.3984 2.41797C14.1035 2.67773 14.6602 3.27148 14.957 3.97656C15.4023 5.08984 15.291 7.6875 15.291 8.875C15.291 10.0996 15.4023 12.6973 14.957 13.7734Z" fill="#292F36"></path>
  </symbol>
  <symbol viewBox="0 0 18 16" id="icon_twitter">
    <path d="M16.1367 4.09375C16.8398 3.56641 17.4727 2.93359 17.9648 2.19531C17.332 2.47656 16.5938 2.6875 15.8555 2.75781C16.6289 2.30078 17.1914 1.59766 17.4727 0.71875C16.7695 1.14062 15.9609 1.45703 15.1523 1.63281C14.4492 0.894531 13.5 0.472656 12.4453 0.472656C10.4062 0.472656 8.75391 2.125 8.75391 4.16406C8.75391 4.44531 8.78906 4.72656 8.85938 5.00781C5.80078 4.83203 3.05859 3.35547 1.23047 1.14062C0.914062 1.66797 0.738281 2.30078 0.738281 3.00391C0.738281 4.26953 1.37109 5.39453 2.39062 6.0625C1.79297 6.02734 1.19531 5.88672 0.703125 5.60547V5.64062C0.703125 7.43359 1.96875 8.91016 3.65625 9.26172C3.375 9.33203 3.02344 9.40234 2.70703 9.40234C2.46094 9.40234 2.25 9.36719 2.00391 9.33203C2.46094 10.8086 3.83203 11.8633 5.44922 11.8984C4.18359 12.8828 2.60156 13.4805 0.878906 13.4805C0.5625 13.4805 0.28125 13.4453 0 13.4102C1.61719 14.4648 3.55078 15.0625 5.66016 15.0625C12.4453 15.0625 16.1367 9.47266 16.1367 4.58594C16.1367 4.41016 16.1367 4.26953 16.1367 4.09375Z" fill="#292F36"></path>
  </symbol>
  <symbol viewBox="0 0 16 17" id="icon_linkedin">
    <path d="M3.64062 16.5V5.98828H0.371094V16.5H3.64062ZM1.98828 4.58203C3.04297 4.58203 3.88672 3.70312 3.88672 2.64844C3.88672 1.62891 3.04297 0.785156 1.98828 0.785156C0.96875 0.785156 0.125 1.62891 0.125 2.64844C0.125 3.70312 0.96875 4.58203 1.98828 4.58203ZM15.8398 16.5H15.875V10.7344C15.875 7.92188 15.2422 5.74219 11.9375 5.74219C10.3555 5.74219 9.30078 6.62109 8.84375 7.42969H8.80859V5.98828H5.67969V16.5H8.94922V11.2969C8.94922 9.92578 9.19531 8.625 10.8828 8.625C12.5703 8.625 12.6055 10.1719 12.6055 11.4023V16.5H15.8398Z" fill="#292F36"></path>
  </symbol>
  <symbol viewBox="0 0 18 16" id="icon_arrow">
    <path d="M1.58984 7.93529L15.313 7.79844M10.208 1.41125L16.731 7.93424L10.0766 14.5886" stroke="#CDA274" stroke-width="2" stroke-linecap="square" stroke-linejoin="round"></path>
  </symbol>
  <symbol viewBox="0 0 11 20" id="icon_arrowhead">
    <path d="M1.16406 19L9.16406 10L1.16406 1" stroke="#292F36" stroke-width="2" stroke-linecap="round" stroke-linejoin="round"></path>
  </symbol>
  <symbol viewBox="0 0 32 32" id="icon_earth">
    <g transform="translate(2,0)">
      <path d="M27.1033 8.83048C25.9815 8.83751 26.0918 10.9193 24.6941 9.93707C24.1751 9.57313 23.8559 9.04407 23.2042 8.88318C22.6349 8.74266 22.0517 8.8888 21.4894 8.98646C20.8502 9.09747 20.0924 9.14735 19.6076 9.63425C19.1389 10.1029 18.8909 10.7317 18.3922 11.2032C17.4275 12.1165 17.0203 13.1135 17.6448 14.4049C18.2455 15.6464 19.5021 16.3202 20.8579 16.2316C22.19 16.1424 23.5737 15.3653 23.5353 17.3122C23.5213 18.0008 23.6645 18.4786 23.8748 19.1186C24.0697 19.7088 24.0564 20.2807 24.1011 20.8899C24.1835 22.0281 24.3917 23.304 24.9533 24.3094L26.001 22.8227C26.1303 22.6386 26.4006 22.3808 26.4648 22.1637C26.5787 21.7794 26.3545 21.1189 26.3286 20.6882C26.3028 20.2575 26.3154 19.8212 26.2497 19.3905C26.1575 18.787 25.8027 18.2214 25.7538 17.6249C25.6636 16.5141 25.8655 15.6274 25.0147 14.6986C24.1933 13.8028 22.9891 13.5878 21.8386 13.7697C21.2589 13.8611 18.9251 14.2363 19.8618 12.9034C20.047 12.6414 20.3704 12.4264 20.5785 12.177C20.7594 11.9599 20.9166 11.5608 21.1289 11.3915C21.3413 11.2221 22.3164 11.0275 22.5958 11.1139C22.8752 11.2003 23.1665 11.6057 23.4089 11.7856C23.8567 12.1249 24.3793 12.3505 24.9323 12.4432C25.8865 12.5838 27.8814 12.0259 27.866 10.7949C27.8632 10.2048 27.3184 9.38272 27.1033 8.83048ZM16.0585 18.9591C15.6862 17.3825 13.5564 16.8556 12.4081 16.0005C11.748 15.5087 11.1605 14.7492 10.2937 14.6873C9.89415 14.6585 9.55956 14.7457 9.16351 14.6424C8.80028 14.5482 8.51529 14.3515 8.12832 14.4028C7.40536 14.4983 6.94924 15.2754 6.1725 15.17C5.43557 15.0703 4.6763 14.2032 4.50865 13.4971C4.29351 12.5894 5.00739 12.295 5.77225 12.2142C6.09147 12.1805 6.44981 12.1439 6.75645 12.2613C7.16019 12.4123 7.35088 12.81 7.71341 13.0109C8.39305 13.3854 8.53066 12.7868 8.42658 12.1798C8.27081 11.2706 8.0892 10.8996 8.89528 10.2743C9.45409 9.84293 9.93187 9.53097 9.84246 8.75601C9.78937 8.30072 9.5414 8.09486 9.77261 7.64169C9.94793 7.29671 10.4292 6.98546 10.7428 6.7796C11.5524 6.24843 14.2109 6.28778 13.1247 4.80108C12.8055 4.36477 12.2167 3.58488 11.6579 3.47809C10.9594 3.3453 10.6492 4.1294 10.1624 4.47508C9.65945 4.8327 8.68014 5.2388 8.17652 4.68585C7.49896 3.9418 8.62566 3.6973 8.87502 3.17808C9.12439 2.65886 8.29736 1.67733 7.8545 1.42861L5.77225 3.7774C5.71244 4.17075 5.73326 4.57226 5.83344 4.95722C5.93363 5.34218 6.11105 5.70245 6.35481 6.01587C6.76902 6.55196 7.42841 6.72409 7.45845 7.4562C7.48779 8.1588 7.37882 8.51853 6.922 9.01245C6.72432 9.22323 6.58462 9.52254 6.38345 9.71997C6.13687 9.96096 6.22838 9.88719 5.8435 9.95323C5.11985 10.0762 4.50376 10.2659 3.80456 10.4598C2.63945 10.7837 2.53188 8.86912 2.00101 8.11805L0.254743 9.53659C0.235884 9.76915 0.541131 10.197 0.624254 10.45C1.10133 11.8952 2.06388 13.013 2.68555 14.3958C3.34005 15.86 5.0975 15.4539 5.87354 16.7368C6.56226 17.875 5.82674 19.3161 6.34224 20.5077C6.71664 21.3726 7.59955 21.5616 8.20865 22.1939C8.83102 22.8326 8.81775 23.7066 8.91274 24.5378C9.01988 25.5154 9.19375 26.4845 9.43313 27.4381C9.51765 27.7676 9.59519 28.2032 9.81941 28.4751C9.97308 28.662 10.5005 28.8229 10.2874 28.8847C10.585 28.9339 11.1151 29.2136 11.3631 29.0084C11.69 28.7386 11.6027 27.9081 11.6593 27.5329C11.829 26.4158 12.385 25.3233 13.1352 24.4872C13.8763 23.6623 14.892 23.1038 15.5178 22.1686C16.1276 21.2566 16.3113 20.0264 16.0585 18.9591ZM13.7262 20.8084C13.3071 21.5609 12.3738 22.0646 11.7738 22.6625C11.6111 22.8248 11.2646 23.3869 11.0607 23.2654C10.9147 23.1782 10.8651 22.4489 10.8113 22.2817C10.5338 21.4397 10.0041 20.7046 9.29483 20.1774C9.07619 20.0109 8.53415 19.7945 8.40912 19.5662C8.26942 19.3182 8.39515 18.7329 8.40004 18.4631C8.40772 18.0696 8.2296 17.4155 8.326 17.0579C8.43776 16.6455 8.22262 16.8942 8.58933 16.8127C8.78282 16.7691 9.58191 16.9104 9.8229 16.9609C10.2057 17.041 10.4166 17.2806 10.7184 17.523C11.5119 18.1631 12.3857 18.6584 13.2749 19.1488C13.9637 19.5325 14.1662 20.0179 13.7262 20.8084ZM8.86455 1.44969C9.19564 1.77499 9.50717 2.16001 10.001 2.19233C10.4683 2.22395 10.9091 1.96961 11.317 2.28929C11.7696 2.64059 12.0958 3.08534 12.6966 3.19494C13.2777 3.30103 13.8931 2.95957 14.037 2.36166C14.1767 1.79185 13.8756 1.17216 13.8575 0.600247C13.8575 0.520853 13.9001 0.168149 13.8456 0.108428C13.8051 0.0634619 13.467 0.114049 13.4153 0.115454C13.0367 0.126696 12.6591 0.152926 12.2823 0.194145C10.909 0.343668 9.56394 0.69029 8.28828 1.22345C8.45801 1.34149 8.67106 1.38856 8.86455 1.44969ZM20.8747 5.39688C21.4677 5.39688 22.0698 5.1299 21.8784 4.43995C21.7178 3.86171 21.444 3.23429 20.7776 3.54624C20.3536 3.74437 19.7529 4.24884 19.7033 4.74909C19.6467 5.31679 20.4793 5.39688 20.8747 5.39688ZM20.4011 8.41595C21.0067 8.7806 21.905 8.60916 22.3618 8.08854C22.7187 7.68103 22.929 6.97351 23.5709 6.97422C23.8535 6.97363 24.125 7.08493 24.3267 7.28406C24.5921 7.56018 24.5398 7.81944 24.5963 8.16512C24.7228 8.94149 25.5505 8.20938 25.7663 7.90867C25.906 7.71265 26.0953 7.42177 26.0318 7.16673C25.9731 6.92855 25.6965 6.67491 25.5735 6.4564C25.2145 5.82406 24.919 5.08844 24.3812 4.57765C23.8636 4.08584 23.2273 4.14275 22.7362 4.65354C22.3339 5.07509 21.8666 5.40883 21.5914 5.92173C21.3972 6.28216 21.1785 6.45429 20.7853 6.54774C20.5687 6.59903 20.3215 6.618 20.1399 6.76414C19.6341 7.16462 19.9219 8.12648 20.4011 8.41595Z" fill="#CDA274"></path>
    </g>
    <path d="M30.8659 15.5863C30.8659 7.58047 24.3752 1.08984 16.3695 1.08984C8.36368 1.08984 1.87305 7.58047 1.87305 15.5863C1.87305 23.592 8.36368 30.0827 16.3695 30.0827C24.3752 30.0827 30.8659 23.592 30.8659 15.5863Z" stroke="#CDA274" stroke-width="2" stroke-miterlimit="10"></path>
  </symbol>
  <symbol viewBox="0 0 34 27" id="icon_mail">
    <path d="M5.80622 5.9924L16.8511 15.6567L27.896 5.9924M4.58459 1.85059H29.117C30.7299 1.85059 32.0375 3.16409 32.0375 4.78438V22.3872C32.0375 24.0075 30.7299 25.321 29.117 25.321H4.58459C2.97163 25.321 1.66406 24.0075 1.66406 22.3872V4.78438C1.66406 3.16409 2.97163 1.85059 4.58459 1.85059Z" stroke="#CDA274" stroke-width="2" stroke-linecap="round" stroke-linejoin="round"></path>
  </symbol>
  <symbol viewBox="0 0 27 27" id="icon_phone">
    <path d="M25.0214 20.5504C24.0998 19.6219 21.8678 18.2669 20.7848 17.7208C19.3746 17.0105 19.2585 16.9525 18.15 17.7759C17.4107 18.3255 16.9191 18.8164 16.0538 18.6319C15.1885 18.4474 13.3081 17.4068 11.6617 15.7657C10.0152 14.1246 8.91427 12.1898 8.72914 11.3275C8.54401 10.4651 9.04311 9.97939 9.58748 9.23833C10.3547 8.19376 10.2967 8.01967 9.64087 6.6095C9.12958 5.5127 7.73499 3.3017 6.80294 2.3848C5.80589 1.40001 5.80589 1.5741 5.16344 1.84105C4.64041 2.0611 4.13863 2.32858 3.66439 2.64014C2.73582 3.25702 2.22046 3.76944 1.86006 4.53951C1.49966 5.30959 1.33774 7.11495 3.19894 10.4959C5.06014 13.8768 6.36593 15.6055 9.06864 18.3005C11.7714 20.9955 13.8496 22.4446 16.8878 24.1484C20.6461 26.2532 22.0877 25.8429 22.8602 25.4831C23.6326 25.1233 24.1474 24.6126 24.7655 23.6841C25.0779 23.2107 25.346 22.7095 25.5664 22.1869C25.8339 21.5468 26.008 21.5468 25.0214 20.5504Z" stroke="#CDA274" stroke-width="2" stroke-miterlimit="10"></path>
  </symbol>
  <symbol viewBox="0 0 23 24" id="icon_search">
    <g opacity="0.8">
        <path d="M16.6837 17.1844L21.9994 22.5001M19.375 10.6875C19.375 15.7616 15.2616 19.875 10.1875 19.875C5.11338 19.875 1 15.7616 1 10.6875C1 5.61338 5.11338 1.5 10.1875 1.5C15.2616 1.5 19.375 5.61338 19.375 10.6875Z" stroke="#141414" stroke-width="1.5" fill="none" stroke-linejoin="round"/>
    </g>
  </symbol>
  <symbol viewBox="0 0 30 23" id="icon_quotes">
    <path d="M6.85281 22.36C4.87948 22.36 3.27948 21.6667 2.05281 20.28C0.879479 18.84 0.292813 16.9733 0.292813 14.68C0.292813 11.6933 1.17281 8.92 2.93281 6.36C4.69281 3.74666 6.87948 1.8 9.49281 0.52L9.97281 1.48C8.85281 2.33333 7.86615 3.42667 7.01281 4.76C6.15948 6.09333 5.54615 7.74666 5.17281 9.72L6.85281 10.12C8.71948 10.5467 10.1595 11.3467 11.1728 12.52C12.2395 13.64 12.7728 15 12.7728 16.6C12.7728 18.3067 12.1861 19.6933 11.0128 20.76C9.89281 21.8267 8.50615 22.36 6.85281 22.36ZM23.7328 22.36C21.7595 22.36 20.1595 21.6667 18.9328 20.28C17.7595 18.84 17.1728 16.9733 17.1728 14.68C17.1728 11.6933 18.0528 8.92 19.8128 6.36C21.5728 3.74666 23.7595 1.8 26.3728 0.52L26.8528 1.48C25.7328 2.33333 24.7461 3.42667 23.8928 4.76C23.0395 6.09333 22.4261 7.74666 22.0528 9.72L23.7328 10.12C25.5995 10.5467 27.0395 11.3467 28.0528 12.52C29.1195 13.64 29.6528 15 29.6528 16.6C29.6528 18.3067 29.0661 19.6933 27.8928 20.76C26.7728 21.8267 25.3861 22.36 23.7328 22.36Z" fill="#292F36"></path>
  </symbol>
  <symbol viewBox="0 0 21 20" id="icon_star">
    <path d="M8.41625 1.8541C9.01495 0.0114827 11.6218 0.0114808 12.2205 1.8541L13.237 4.98278C13.5048 5.80682 14.2727 6.36475 15.1392 6.36475H18.4288C20.3663 6.36475 21.1718 8.84398 19.6044 9.98278L16.943 11.9164C16.242 12.4257 15.9487 13.3284 16.2165 14.1525L17.233 17.2812C17.8317 19.1238 15.7228 20.656 14.1553 19.5172L11.4939 17.5836C10.793 17.0743 9.84376 17.0743 9.14279 17.5836L6.48138 19.5172C4.91395 20.656 2.80499 19.1238 3.40369 17.2812L4.42026 14.1525C4.68801 13.3284 4.39469 12.4257 3.69372 11.9164L1.03231 9.98278C-0.535117 8.84398 0.270432 6.36475 2.20788 6.36475H5.49756C6.36402 6.36475 7.13193 5.80682 7.39968 4.98278L8.41625 1.8541Z" fill="#FFA928"></path>
  </symbol>
  <symbol viewBox="0 0 34 34" id="icon_logo">
      <path d="M0 34.0003H13.4588V24.499C13.4588 22.4853 15.0898 20.8543 17.1035 20.8543C19.1172 20.8543 20.7482 22.4853 20.7482 24.499V34.0003H33.9975V0C15.2211 0 0 15.2211 0 34.0003Z" fill="#CDA274"/>
  </symbol>
</svg>
