<svg width="30" height="23" viewBox="0 0 30 23" fill="none" xmlns="http://www.w3.org/2000/svg">
<path d="M6.85281 22.36C4.87948 22.36 3.27948 21.6667 2.05281 20.28C0.879479 18.84 0.292813 16.9733 0.292813 14.68C0.292813 11.6933 1.17281 8.92 2.93281 6.36C4.69281 3.74666 6.87948 1.8 9.49281 0.52L9.97281 1.48C8.85281 2.33333 7.86615 3.42667 7.01281 4.76C6.15948 6.09333 5.54615 7.74666 5.17281 9.72L6.85281 10.12C8.71948 10.5467 10.1595 11.3467 11.1728 12.52C12.2395 13.64 12.7728 15 12.7728 16.6C12.7728 18.3067 12.1861 19.6933 11.0128 20.76C9.89281 21.8267 8.50615 22.36 6.85281 22.36ZM23.7328 22.36C21.7595 22.36 20.1595 21.6667 18.9328 20.28C17.7595 18.84 17.1728 16.9733 17.1728 14.68C17.1728 11.6933 18.0528 8.92 19.8128 6.36C21.5728 3.74666 23.7595 1.8 26.3728 0.52L26.8528 1.48C25.7328 2.33333 24.7461 3.42667 23.8928 4.76C23.0395 6.09333 22.4261 7.74666 22.0528 9.72L23.7328 10.12C25.5995 10.5467 27.0395 11.3467 28.0528 12.52C29.1195 13.64 29.6528 15 29.6528 16.6C29.6528 18.3067 29.0661 19.6933 27.8928 20.76C26.7728 21.8267 25.3861 22.36 23.7328 22.36Z" fill="#292F36"/>
</svg>
