<svg width="32" height="32" viewBox="0 0 32 32" fill="none" xmlns="http://www.w3.org/2000/svg">
<g transform="translate(2,0)">
<path d="M27.1033 8.83048C25.9815 8.83751 26.0918 10.9193 24.6941 9.93707C24.1751 9.57313 23.8559 9.04407 23.2042 8.88318C22.6349 8.74266 22.0517 8.8888 21.4894 8.98646C20.8502 9.09747 20.0924 9.14735 19.6076 9.63425C19.1389 10.1029 18.8909 10.7317 18.3922 11.2032C17.4275 12.1165 17.0203 13.1135 17.6448 14.4049C18.2455 15.6464 19.5021 16.3202 20.8579 16.2316C22.19 16.1424 23.5737 15.3653 23.5353 17.3122C23.5213 18.0008 23.6645 18.4786 23.8748 19.1186C24.0697 19.7088 24.0564 20.2807 24.1011 20.8899C24.1835 22.0281 24.3917 23.304 24.9533 24.3094L26.001 22.8227C26.1303 22.6386 26.4006 22.3808 26.4648 22.1637C26.5787 21.7794 26.3545 21.1189 26.3286 20.6882C26.3028 20.2575 26.3154 19.8212 26.2497 19.3905C26.1575 18.787 25.8027 18.2214 25.7538 17.6249C25.6636 16.5141 25.8655 15.6274 25.0147 14.6986C24.1933 13.8028 22.9891 13.5878 21.8386 13.7697C21.2589 13.8611 18.9251 14.2363 19.8618 12.9034C20.047 12.6414 20.3704 12.4264 20.5785 12.177C20.7594 11.9599 20.9166 11.5608 21.1289 11.3915C21.3413 11.2221 22.3164 11.0275 22.5958 11.1139C22.8752 11.2003 23.1665 11.6057 23.4089 11.7856C23.8567 12.1249 24.3793 12.3505 24.9323 12.4432C25.8865 12.5838 27.8814 12.0259 27.866 10.7949C27.8632 10.2048 27.3184 9.38272 27.1033 8.83048ZM16.0585 18.9591C15.6862 17.3825 13.5564 16.8556 12.4081 16.0005C11.748 15.5087 11.1605 14.7492 10.2937 14.6873C9.89415 14.6585 9.55956 14.7457 9.16351 14.6424C8.80028 14.5482 8.51529 14.3515 8.12832 14.4028C7.40536 14.4983 6.94924 15.2754 6.1725 15.17C5.43557 15.0703 4.6763 14.2032 4.50865 13.4971C4.29351 12.5894 5.00739 12.295 5.77225 12.2142C6.09147 12.1805 6.44981 12.1439 6.75645 12.2613C7.16019 12.4123 7.35088 12.81 7.71341 13.0109C8.39305 13.3854 8.53066 12.7868 8.42658 12.1798C8.27081 11.2706 8.0892 10.8996 8.89528 10.2743C9.45409 9.84293 9.93187 9.53097 9.84246 8.75601C9.78937 8.30072 9.5414 8.09486 9.77261 7.64169C9.94793 7.29671 10.4292 6.98546 10.7428 6.7796C11.5524 6.24843 14.2109 6.28778 13.1247 4.80108C12.8055 4.36477 12.2167 3.58488 11.6579 3.47809C10.9594 3.3453 10.6492 4.1294 10.1624 4.47508C9.65945 4.8327 8.68014 5.2388 8.17652 4.68585C7.49896 3.9418 8.62566 3.6973 8.87502 3.17808C9.12439 2.65886 8.29736 1.67733 7.8545 1.42861L5.77225 3.7774C5.71244 4.17075 5.73326 4.57226 5.83344 4.95722C5.93363 5.34218 6.11105 5.70245 6.35481 6.01587C6.76902 6.55196 7.42841 6.72409 7.45845 7.4562C7.48779 8.1588 7.37882 8.51853 6.922 9.01245C6.72432 9.22323 6.58462 9.52254 6.38345 9.71997C6.13687 9.96096 6.22838 9.88719 5.8435 9.95323C5.11985 10.0762 4.50376 10.2659 3.80456 10.4598C2.63945 10.7837 2.53188 8.86912 2.00101 8.11805L0.254743 9.53659C0.235884 9.76915 0.541131 10.197 0.624254 10.45C1.10133 11.8952 2.06388 13.013 2.68555 14.3958C3.34005 15.86 5.0975 15.4539 5.87354 16.7368C6.56226 17.875 5.82674 19.3161 6.34224 20.5077C6.71664 21.3726 7.59955 21.5616 8.20865 22.1939C8.83102 22.8326 8.81775 23.7066 8.91274 24.5378C9.01988 25.5154 9.19375 26.4845 9.43313 27.4381C9.51765 27.7676 9.59519 28.2032 9.81941 28.4751C9.97308 28.662 10.5005 28.8229 10.2874 28.8847C10.585 28.9339 11.1151 29.2136 11.3631 29.0084C11.69 28.7386 11.6027 27.9081 11.6593 27.5329C11.829 26.4158 12.385 25.3233 13.1352 24.4872C13.8763 23.6623 14.892 23.1038 15.5178 22.1686C16.1276 21.2566 16.3113 20.0264 16.0585 18.9591ZM13.7262 20.8084C13.3071 21.5609 12.3738 22.0646 11.7738 22.6625C11.6111 22.8248 11.2646 23.3869 11.0607 23.2654C10.9147 23.1782 10.8651 22.4489 10.8113 22.2817C10.5338 21.4397 10.0041 20.7046 9.29483 20.1774C9.07619 20.0109 8.53415 19.7945 8.40912 19.5662C8.26942 19.3182 8.39515 18.7329 8.40004 18.4631C8.40772 18.0696 8.2296 17.4155 8.326 17.0579C8.43776 16.6455 8.22262 16.8942 8.58933 16.8127C8.78282 16.7691 9.58191 16.9104 9.8229 16.9609C10.2057 17.041 10.4166 17.2806 10.7184 17.523C11.5119 18.1631 12.3857 18.6584 13.2749 19.1488C13.9637 19.5325 14.1662 20.0179 13.7262 20.8084ZM8.86455 1.44969C9.19564 1.77499 9.50717 2.16001 10.001 2.19233C10.4683 2.22395 10.9091 1.96961 11.317 2.28929C11.7696 2.64059 12.0958 3.08534 12.6966 3.19494C13.2777 3.30103 13.8931 2.95957 14.037 2.36166C14.1767 1.79185 13.8756 1.17216 13.8575 0.600247C13.8575 0.520853 13.9001 0.168149 13.8456 0.108428C13.8051 0.0634619 13.467 0.114049 13.4153 0.115454C13.0367 0.126696 12.6591 0.152926 12.2823 0.194145C10.909 0.343668 9.56394 0.69029 8.28828 1.22345C8.45801 1.34149 8.67106 1.38856 8.86455 1.44969ZM20.8747 5.39688C21.4677 5.39688 22.0698 5.1299 21.8784 4.43995C21.7178 3.86171 21.444 3.23429 20.7776 3.54624C20.3536 3.74437 19.7529 4.24884 19.7033 4.74909C19.6467 5.31679 20.4793 5.39688 20.8747 5.39688ZM20.4011 8.41595C21.0067 8.7806 21.905 8.60916 22.3618 8.08854C22.7187 7.68103 22.929 6.97351 23.5709 6.97422C23.8535 6.97363 24.125 7.08493 24.3267 7.28406C24.5921 7.56018 24.5398 7.81944 24.5963 8.16512C24.7228 8.94149 25.5505 8.20938 25.7663 7.90867C25.906 7.71265 26.0953 7.42177 26.0318 7.16673C25.9731 6.92855 25.6965 6.67491 25.5735 6.4564C25.2145 5.82406 24.919 5.08844 24.3812 4.57765C23.8636 4.08584 23.2273 4.14275 22.7362 4.65354C22.3339 5.07509 21.8666 5.40883 21.5914 5.92173C21.3972 6.28216 21.1785 6.45429 20.7853 6.54774C20.5687 6.59903 20.3215 6.618 20.1399 6.76414C19.6341 7.16462 19.9219 8.12648 20.4011 8.41595Z" fill="#CDA274"/>
    </g>
<path d="M30.8659 15.5863C30.8659 7.58047 24.3752 1.08984 16.3695 1.08984C8.36368 1.08984 1.87305 7.58047 1.87305 15.5863C1.87305 23.592 8.36368 30.0827 16.3695 30.0827C24.3752 30.0827 30.8659 23.592 30.8659 15.5863Z" stroke="#CDA274" stroke-width="2" stroke-miterlimit="10"/>
</svg>
