<svg width="21" height="20" viewBox="0 0 21 20" fill="none" xmlns="http://www.w3.org/2000/svg">
<path d="M8.41625 1.8541C9.01495 0.0114827 11.6218 0.0114808 12.2205 1.8541L13.237 4.98278C13.5048 5.80682 14.2727 6.36475 15.1392 6.36475H18.4288C20.3663 6.36475 21.1718 8.84398 19.6044 9.98278L16.943 11.9164C16.242 12.4257 15.9487 13.3284 16.2165 14.1525L17.233 17.2812C17.8317 19.1238 15.7228 20.656 14.1553 19.5172L11.4939 17.5836C10.793 17.0743 9.84376 17.0743 9.14279 17.5836L6.48138 19.5172C4.91395 20.656 2.80499 19.1238 3.40369 17.2812L4.42026 14.1525C4.68801 13.3284 4.39469 12.4257 3.69372 11.9164L1.03231 9.98278C-0.535117 8.84398 0.270432 6.36475 2.20788 6.36475H5.49756C6.36402 6.36475 7.13193 5.80682 7.39968 4.98278L8.41625 1.8541Z" fill="#FFA928"/>
</svg>
